<?xml version="1.0" encoding="UTF-8" standalone="no"?>
<!-- Generator: Adobe Illustrator 19.0.0, SVG Export Plug-In . SVG Version: 6.00 Build 0)  -->

<svg
   xmlns:dc="http://purl.org/dc/elements/1.1/"
   xmlns:cc="http://creativecommons.org/ns#"
   xmlns:rdf="http://www.w3.org/1999/02/22-rdf-syntax-ns#"
   xmlns:svg="http://www.w3.org/2000/svg"
   xmlns="http://www.w3.org/2000/svg"
   xmlns:sodipodi="http://sodipodi.sourceforge.net/DTD/sodipodi-0.dtd"
   xmlns:inkscape="http://www.inkscape.org/namespaces/inkscape"
   version="1.1"
   id="Layer_1"
   x="0px"
   y="0px"
   viewBox="0 0 523.72601 612"
   xml:space="preserve"
   sodipodi:docname="challenge.svg"
   width="523.72601"
   height="612"
   inkscape:version="0.92.3 (2405546, 2018-03-11)"><metadata
   id="metadata75"><rdf:RDF><cc:Work
       rdf:about=""><dc:format>image/svg+xml</dc:format><dc:type
         rdf:resource="http://purl.org/dc/dcmitype/StillImage" /><dc:title></dc:title></cc:Work></rdf:RDF></metadata><defs
   id="defs73" /><sodipodi:namedview
   pagecolor="#ffffff"
   bordercolor="#666666"
   borderopacity="1"
   objecttolerance="10"
   gridtolerance="10"
   guidetolerance="10"
   inkscape:pageopacity="0"
   inkscape:pageshadow="2"
   inkscape:window-width="1366"
   inkscape:window-height="704"
   id="namedview71"
   showgrid="false"
   fit-margin-top="50"
   fit-margin-left="50"
   fit-margin-right="50"
   fit-margin-bottom="50"
   inkscape:zoom="0.4609375"
   inkscape:cx="261.864"
   inkscape:cy="306"
   inkscape:window-x="0"
   inkscape:window-y="27"
   inkscape:window-maximized="1"
   inkscape:current-layer="Layer_1" />
<path
   style="fill:#ffd782"
   d="M 341.312,314.828 C 268.3,314.828 208.898,255.426 208.898,182.414 208.898,109.402 268.3,50 341.312,50 c 73.012,0 132.414,59.402 132.414,132.414 0,73.012 -59.402,132.414 -132.414,132.414 z"
   id="path2"
   inkscape:connector-curvature="0" />
<path
   style="fill:#ffc36e"
   d="m 403.105,270.69 c -73.012,0 -132.414,-59.402 -132.414,-132.414 0,-30.562 10.509,-58.66 27.968,-81.095 -52.122,17.807 -89.761,67.157 -89.761,125.233 0,73.012 59.402,132.414 132.414,132.414 42.45,0 80.198,-20.159 104.446,-51.319 -13.405,4.58 -27.716,7.181 -42.653,7.181 z"
   id="path4"
   inkscape:connector-curvature="0" />
<path
   style="fill:#ffffff"
   d="m 420.761,120.621 h -44.138 c -4.879,0 -8.828,3.953 -8.828,8.828 0,4.875 3.948,8.828 8.828,8.828 h 22.828 l -44.897,44.896 -20.242,-20.242 c -3.448,-3.448 -9.034,-3.448 -12.482,0 l -44.138,44.138 c -3.448,3.448 -3.448,9.034 0,12.482 1.725,1.725 3.982,2.586 6.241,2.586 2.259,0 4.518,-0.862 6.241,-2.586 l 37.897,-37.896 20.242,20.242 c 3.448,3.448 9.035,3.448 12.483,0 l 51.137,-51.138 v 22.828 c 0,4.875 3.948,8.828 8.828,8.828 4.879,0 8.828,-3.953 8.828,-8.828 v -44.139 c -10e-4,-4.875 -3.949,-8.827 -8.828,-8.827 z"
   id="path6"
   inkscape:connector-curvature="0" />
<path
   style="fill:#694b4b"
   d="m 200.071,164.759 c -139.726,0 -124.233,169.917 -123.595,293.048 0.024,4.65 2.46,8.843 6.443,11.244 15.484,9.334 58.005,31.156 117.152,31.156 59.147,0 101.668,-21.822 117.152,-31.156 3.982,-2.401 6.419,-6.594 6.443,-11.244 0.638,-123.132 16.131,-293.048 -123.595,-293.048 z"
   id="path8"
   inkscape:connector-curvature="0" />
<path
   style="fill:#5a4146"
   d="M 191.068,165.108 C 61.118,172.393 75.852,337.414 76.476,457.807 c 0.024,4.65 2.46,8.843 6.443,11.244 15.484,9.334 58.005,31.156 117.152,31.156 l 35.31,-247.172"
   id="path10"
   inkscape:connector-curvature="0" />
<path
   style="fill:#694b4b"
   d="m 200.071,164.759 c -79.448,0 -84.966,96 -84.966,96 45.793,-7.724 73.931,11.586 120.276,-7.724 l -35.31,247.172 c 59.147,0 101.668,-21.822 117.152,-31.156 3.982,-2.401 6.419,-6.594 6.443,-11.244 0.638,-123.132 16.131,-293.048 -123.595,-293.048 z"
   id="path12"
   inkscape:connector-curvature="0" />
<path
   style="fill:#785550"
   d="m 323.666,457.807 c 0.548,-105.806 11.969,-246.055 -73.454,-283.457 -1.49,7.741 -4.188,29.348 2.825,43.374 17.655,35.31 35.31,35.31 52.966,61.793 17.655,97.103 -33.735,200.168 -50.802,214.198 v 0 c 30.24,-7.192 51.918,-18.573 62.023,-24.664 3.981,-2.401 6.418,-6.594 6.442,-11.244 z"
   id="path14"
   inkscape:connector-curvature="0" />
<path
   style="fill:#e6af78"
   d="m 333.843,484.589 -78.77,-32.821 c -6.579,-2.741 -10.865,-9.17 -10.865,-16.298 v -21.332 h -88.276 v 21.333 c 0,7.127 -4.286,13.556 -10.865,16.298 L 66.297,484.59 C 56.429,488.7 50,498.343 50,509.035 v 35.31 C 50,554.095 57.905,562 67.655,562 h 264.828 c 9.75,0 17.655,-7.905 17.655,-17.655 v -35.31 c 0.002,-10.692 -6.427,-20.335 -16.295,-24.446 z"
   id="path16"
   inkscape:connector-curvature="0" />
<path
   style="fill:#b4e1fa"
   d="m 333.843,484.589 -76.16,-31.733 -57.612,24.864 -57.612,-24.864 -76.16,31.733 c -9.868,4.111 -16.297,13.754 -16.297,24.446 v 35.31 c 0,9.75 7.905,17.655 17.655,17.655 h 264.828 c 9.75,0 17.655,-7.905 17.655,-17.655 v -35.31 c 0,-10.692 -6.429,-20.335 -16.297,-24.446 z"
   id="path18"
   inkscape:connector-curvature="0" />
<path
   style="fill:#d29b6e"
   d="m 244.209,414.138 h -88.276 v 21.333 c 0,7.127 -4.286,13.556 -10.865,16.298 l -12.302,5.127 C 226.91,480.9 244.209,414.138 244.209,414.138 Z"
   id="path20"
   inkscape:connector-curvature="0" />
<g
   id="g32"
   transform="translate(5.864,50)">
	<path
   style="fill:#a0d2f0"
   d="M 87.165,468.738 51.732,440.554 c -4.748,4.855 -7.594,11.42 -7.594,18.481 v 35.31 c 0,9.75 7.905,17.655 17.655,17.655 h 35.31 v -22.582 c 0,-8.045 -3.656,-15.654 -9.938,-20.68 z"
   id="path22"
   inkscape:connector-curvature="0" />
	<path
   style="fill:#a0d2f0"
   d="m 344.276,494.345 v -35.31 c 0,-7.006 -2.798,-13.526 -7.479,-18.37 l -35.548,28.074 c -6.282,5.026 -9.939,12.634 -9.939,20.68 V 512 h 35.31 c 9.751,0 17.656,-7.905 17.656,-17.655 z"
   id="path24"
   inkscape:connector-curvature="0" />
	<path
   style="fill:#a0d2f0"
   d="m 194.207,494.345 v 0 c -4.875,0 -8.828,-3.953 -8.828,-8.828 V 427.74 h 17.655 v 57.778 c 0,4.874 -3.952,8.827 -8.827,8.827 z"
   id="path26"
   inkscape:connector-curvature="0" />
	<path
   style="fill:#a0d2f0"
   d="m 194.207,427.72 -50.525,-37.894 c -3.243,-2.432 -7.864,-1.641 -10.113,1.732 l -9.983,14.975 30.976,43.366 c 2.355,3.297 6.995,3.94 10.158,1.41 z"
   id="path28"
   inkscape:connector-curvature="0" />
	<path
   style="fill:#a0d2f0"
   d="m 194.207,427.72 50.525,-37.894 c 3.243,-2.432 7.864,-1.641 10.113,1.732 l 9.983,14.975 -30.976,43.366 c -2.355,3.297 -6.995,3.94 -10.158,1.41 z"
   id="path30"
   inkscape:connector-curvature="0" />
</g>
<path
   style="fill:#f0c087"
   d="m 244.209,244.207 c -44.138,44.138 -130.759,8.828 -130.759,79.448 l 5.482,52.021 c 1.057,11.636 7.804,21.996 18.017,27.67 l 50.261,27.923 c 7.999,4.444 17.724,4.444 25.722,0 l 50.261,-27.923 c 10.214,-5.675 16.959,-16.034 18.017,-27.67 l 6.328,-61.782 c 0.45,-4.391 0.546,-8.809 0.397,-13.216 -3.302,-22.473 -34.899,-38.816 -43.726,-56.471 z"
   id="path34"
   inkscape:connector-curvature="0" />
<path
   style="fill:#e6af78"
   d="m 113.45,323.655 5.482,52.021 c 1.057,11.636 7.804,21.996 18.017,27.67 l 50.261,27.923 c 5.55,3.083 11.915,3.882 17.974,2.687 v 0 c 0,0 -25.342,-7.679 -40.423,-48.507 -4.62,-12.508 -11.034,-78.712 -5.517,-86.805 10.905,-15.994 71.724,-17.655 89.695,-47.327 -0.888,-1.101 -1.708,-2.205 -2.456,-3.31 -0.061,-0.089 -0.134,-0.179 -0.193,-0.268 -0.78,-1.173 -1.489,-2.349 -2.08,-3.532 -44.139,44.138 -130.76,8.827 -130.76,79.448 z"
   id="path36"
   inkscape:connector-curvature="0" />
<path
   style="fill:#a0d2f0"
   d="m 270.692,544.345 h -35.31 c -4.875,0 -8.828,3.953 -8.828,8.828 V 562 h 52.966 v -8.828 c -10e-4,-4.875 -3.953,-8.827 -8.828,-8.827 z"
   id="path38"
   inkscape:connector-curvature="0" />
<g
   id="g40"
   transform="translate(5.864,50)">
</g>
<g
   id="g42"
   transform="translate(5.864,50)">
</g>
<g
   id="g44"
   transform="translate(5.864,50)">
</g>
<g
   id="g46"
   transform="translate(5.864,50)">
</g>
<g
   id="g48"
   transform="translate(5.864,50)">
</g>
<g
   id="g50"
   transform="translate(5.864,50)">
</g>
<g
   id="g52"
   transform="translate(5.864,50)">
</g>
<g
   id="g54"
   transform="translate(5.864,50)">
</g>
<g
   id="g56"
   transform="translate(5.864,50)">
</g>
<g
   id="g58"
   transform="translate(5.864,50)">
</g>
<g
   id="g60"
   transform="translate(5.864,50)">
</g>
<g
   id="g62"
   transform="translate(5.864,50)">
</g>
<g
   id="g64"
   transform="translate(5.864,50)">
</g>
<g
   id="g66"
   transform="translate(5.864,50)">
</g>
<g
   id="g68"
   transform="translate(5.864,50)">
</g>
</svg>