<?xml version="1.0" encoding="UTF-8" standalone="no"?>
<!-- Generator: Adobe Illustrator 19.0.0, SVG Export Plug-In . SVG Version: 6.00 Build 0)  -->

<svg
   xmlns:dc="http://purl.org/dc/elements/1.1/"
   xmlns:cc="http://creativecommons.org/ns#"
   xmlns:rdf="http://www.w3.org/1999/02/22-rdf-syntax-ns#"
   xmlns:svg="http://www.w3.org/2000/svg"
   xmlns="http://www.w3.org/2000/svg"
   xmlns:sodipodi="http://sodipodi.sourceforge.net/DTD/sodipodi-0.dtd"
   xmlns:inkscape="http://www.inkscape.org/namespaces/inkscape"
   version="1.1"
   id="Layer_1"
   x="0px"
   y="0px"
   viewBox="0 0 569.495 612.00055"
   xml:space="preserve"
   sodipodi:docname="problem.svg"
   width="569.495"
   height="612.00055"
   inkscape:version="0.92.3 (2405546, 2018-03-11)"><metadata
   id="metadata147"><rdf:RDF><cc:Work
       rdf:about=""><dc:format>image/svg+xml</dc:format><dc:type
         rdf:resource="http://purl.org/dc/dcmitype/StillImage" /><dc:title></dc:title></cc:Work></rdf:RDF></metadata><defs
   id="defs145" /><sodipodi:namedview
   pagecolor="#ffffff"
   bordercolor="#666666"
   borderopacity="1"
   objecttolerance="10"
   gridtolerance="10"
   guidetolerance="10"
   inkscape:pageopacity="0"
   inkscape:pageshadow="2"
   inkscape:window-width="1366"
   inkscape:window-height="704"
   id="namedview143"
   showgrid="false"
   fit-margin-left="50"
   fit-margin-top="50"
   fit-margin-right="50"
   fit-margin-bottom="50"
   inkscape:zoom="0.4609375"
   inkscape:cx="289.08598"
   inkscape:cy="297.32295"
   inkscape:window-x="0"
   inkscape:window-y="27"
   inkscape:window-maximized="1"
   inkscape:current-layer="Layer_1" />
<polygon
   style="fill:#e4eaf6"
   points="269.288,228.285 251.572,228.285 251.572,312.21 165.22,371.575 175.255,386.178 260.43,327.617 345.605,386.178 355.64,371.575 269.288,312.21 "
   id="polygon2"
   transform="translate(28.747,49.99952)" />
<polygon
   style="fill:#e6af78"
   points="297.226,167.639 297.226,139.02 223.633,139.02 223.633,167.639 260.43,200.347 "
   id="polygon4"
   transform="translate(28.747,49.99952)" />
<path
   style="fill:#707487"
   d="m 382.868,231.02552 -50.591,-11.903 c -0.764,-0.179 -1.467,-0.485 -2.125,-0.855 l -40.977,23.903 -39.379,-25.059 c -1.02,0.96 -2.284,1.673 -3.722,2.011 l -50.591,11.903 c -7.388,1.738 -12.609,8.33 -12.609,15.92 v 32.021 c 0,4.516 3.661,8.177 8.177,8.177 h 196.247 c 4.516,0 8.177,-3.661 8.177,-8.177 v -32.021 c 0.002,-7.589 -5.219,-14.181 -12.607,-15.92 z"
   id="path6"
   inkscape:connector-curvature="0" />
<path
   style="fill:#d29b6e"
   d="m 252.38,189.01952 v 30.196 c 46.354,16.7 73.593,-25.097 73.593,-25.097 v -5.099 c 0,0 -73.593,0 -73.593,0 z"
   id="path8"
   inkscape:connector-curvature="0" />
<path
   style="fill:#f0c087"
   d="m 236.027,94.98452 3.563,78.382 c 0.333,7.323 3.923,14.112 9.787,18.511 l 16.905,12.679 c 4.246,3.185 9.411,4.906 14.718,4.906 h 16.354 c 5.307,0 10.473,-1.722 14.718,-4.906 l 16.905,-12.679 c 5.864,-4.398 9.454,-11.188 9.787,-18.511 l 3.563,-78.382 z"
   id="path10"
   inkscape:connector-curvature="0" />
<path
   style="fill:#e6af78"
   d="m 276.911,111.33852 c 16.354,0 40.885,-4.088 46.704,-16.354 h -87.588 l 3.562,78.382 c 0.333,7.323 3.923,14.112 9.787,18.511 l 16.905,12.679 c 4.246,3.185 9.411,4.906 14.718,4.906 h 8.177 c -8.177,0 -24.531,-16.354 -24.531,-36.797 0,-9.998 0,-36.797 0,-49.062 0.001,-4.088 4.089,-12.265 12.266,-12.265 z"
   id="path12"
   inkscape:connector-curvature="0" />
<g
   id="g20"
   transform="translate(28.747,49.99952)">
	<path
   style="fill:#5b5d6e"
   d="m 336.715,210.609 26.493,-23.799 c 2.22,2.811 3.522,6.348 3.522,10.135 v 32.021 c 0,4.516 -3.661,8.177 -8.177,8.177 h -28.619 v -11.327 c 0,-5.802 2.466,-11.329 6.781,-15.207 z"
   id="path14"
   inkscape:connector-curvature="0" />
	<path
   style="fill:#5b5d6e"
   d="M 184.144,210.609 157.651,186.81 c -2.22,2.811 -3.522,6.348 -3.522,10.135 v 32.021 c 0,4.516 3.661,8.177 8.177,8.177 h 28.619 v -11.327 c 10e-4,-5.802 -2.465,-11.329 -6.781,-15.207 z"
   id="path16"
   inkscape:connector-curvature="0" />
	<polygon
   style="fill:#5b5d6e"
   points="252.764,200.347 268.096,200.347 270.651,237.143 250.208,237.143 "
   id="polygon18" />
</g>
<path
   style="fill:#515262"
   d="m 299.398,242.16952 h -20.443 v 2.362 c 0,5.47 4.434,9.904 9.904,9.904 h 0.634 c 5.47,0 9.904,-4.434 9.904,-9.904 v -2.362 z"
   id="path22"
   inkscape:connector-curvature="0" />
<g
   id="g28"
   transform="translate(28.747,49.99952)">
	<path
   style="fill:#5b5d6e"
   d="m 223.06,158.536 37.37,33.633 c 0,0 -10.466,5.283 -23.382,15.932 -2.664,2.197 -6.695,1.307 -8.123,-1.837 l -17.557,-38.626 5.554,-8.331 c 1.383,-2.073 4.284,-2.438 6.138,-0.771 z"
   id="path24"
   inkscape:connector-curvature="0" />
	<path
   style="fill:#5b5d6e"
   d="m 297.8,158.536 -37.37,33.633 c 0,0 10.466,5.283 23.382,15.932 2.664,2.197 6.695,1.307 8.123,-1.837 l 17.557,-38.626 -5.554,-8.331 c -1.383,-2.073 -4.284,-2.438 -6.138,-0.771 z"
   id="path26"
   inkscape:connector-curvature="0" />
</g>
<path
   style="fill:#785550"
   d="m 313.963,67.89852 3.833,27.087 c 17.496,3.499 20.018,30.957 20.381,38.8 0.066,1.423 0.52,2.798 1.292,3.995 l 6.676,10.355 c 0,0 -2.285,-17.121 8.177,-28.619 0,-0.001 3.592,-67.972 -40.359,-51.618 z"
   id="path30"
   inkscape:connector-curvature="0" />
<path
   style="fill:#f0c087"
   d="m 350.248,146.38552 -4.617,18.469 c -0.547,2.188 -2.514,3.723 -4.769,3.723 v 0 c -2.479,0 -4.57,-1.846 -4.878,-4.305 l -2.361,-18.889 c -0.631,-5.051 3.307,-9.513 8.398,-9.513 h 0.017 c 5.504,-0.001 9.544,5.173 8.21,10.515 z"
   id="path32"
   inkscape:connector-curvature="0" />
<path
   style="fill:#694b4b"
   d="m 239.944,60.57352 6.048,4.131 c -27.341,20.187 -22.231,54.811 -22.231,54.811 8.177,8.177 8.177,28.619 8.177,28.619 l 8.177,-8.177 c 0,0 -3.156,-23.621 12.266,-32.707 14.31,-8.432 26.831,-4.088 39.607,-4.088 34.241,0 43.823,-12.904 42.162,-28.619 -0.859,-8.132 -13.292,-25.069 -44.973,-24.531 -12.786,0.217 -36.797,4.088 -49.233,10.561 z"
   id="path34"
   inkscape:connector-curvature="0" />
<path
   style="fill:#5a4146"
   d="m 237.56,99.58452 c 0,0 -4.344,-17.121 8.432,-34.88 -27.341,20.187 -22.231,54.811 -22.231,54.811 8.177,8.177 8.177,28.619 8.177,28.619 l 8.177,-8.177 c 0,0 -3.156,-23.621 12.266,-32.707 14.31,-8.432 26.831,-4.088 39.607,-4.088 5.569,0 10.422,-0.373 14.744,-1.012 -26.371,0.883 -41.916,-19.091 -69.172,-2.566 z"
   id="path36"
   inkscape:connector-curvature="0" />
<path
   style="fill:#e6af78"
   d="m 228.106,146.38552 4.617,18.469 c 0.547,2.188 2.514,3.723 4.769,3.723 v 0 c 2.479,0 4.57,-1.846 4.878,-4.305 l 2.361,-18.889 c 0.631,-5.051 -3.307,-9.513 -8.398,-9.513 h -0.017 c -5.505,-0.001 -9.545,5.173 -8.21,10.515 z"
   id="path38"
   inkscape:connector-curvature="0" />
<path
   style="fill:#5b5d6e"
   d="m 338.239,278.96652 h -20.443 c -4.516,0 -8.177,3.661 -8.177,8.177 v 0 h 36.797 v 0 c -10e-4,-4.516 -3.662,-8.177 -8.177,-8.177 z"
   id="path40"
   inkscape:connector-curvature="0" />
<polygon
   style="fill:#e6af78"
   points="164.351,442.249 164.351,413.629 90.758,413.629 90.758,442.249 127.554,474.956 "
   id="polygon42"
   transform="translate(28.747,49.99952)" />
<path
   style="fill:#eff2fa"
   d="m 249.993,505.63552 -50.591,-11.903 c -0.764,-0.179 -1.467,-0.485 -2.124,-0.855 l -40.977,23.903 -39.379,-25.059 c -1.02,0.96 -2.284,1.673 -3.722,2.011 l -50.591,11.903 c -7.388,1.738 -12.609,8.33 -12.609,15.92 v 32.021 c 0,4.516 3.661,8.177 8.177,8.177 h 196.247 c 4.516,0 8.177,-3.661 8.177,-8.177 v -32.021 c 10e-4,-7.59 -5.22,-14.182 -12.608,-15.92 z"
   id="path44"
   inkscape:connector-curvature="0" />
<path
   style="fill:#d29b6e"
   d="m 119.505,463.62852 v 30.196 c 46.354,16.7 73.593,-25.097 73.593,-25.097 v -5.099 z"
   id="path46"
   inkscape:connector-curvature="0" />
<path
   style="fill:#f0c087"
   d="m 103.151,369.59452 3.563,78.382 c 0.333,7.323 3.923,14.112 9.787,18.511 l 16.905,12.679 c 4.246,3.185 9.411,4.906 14.718,4.906 h 16.354 c 5.307,0 10.473,-1.722 14.718,-4.906 l 16.905,-12.679 c 5.864,-4.398 9.454,-11.188 9.787,-18.511 l 3.563,-78.382 z"
   id="path48"
   inkscape:connector-curvature="0" />
<path
   style="fill:#e6af78"
   d="m 144.036,385.94752 c 16.354,0 40.885,-4.088 46.703,-16.354 h -87.588 l 3.562,78.382 c 0.333,7.323 3.923,14.112 9.787,18.511 l 16.905,12.679 c 4.246,3.185 9.411,4.906 14.718,4.906 h 8.177 c -8.177,0 -24.531,-16.354 -24.531,-36.797 0,-9.998 0,-36.797 0,-49.062 0.001,-4.089 4.09,-12.265 12.267,-12.265 z"
   id="path50"
   inkscape:connector-curvature="0" />
<g
   id="g56"
   transform="translate(28.747,49.99952)">
	<path
   style="fill:#e4eaf6"
   d="m 203.839,485.218 26.493,-23.799 c 2.22,2.811 3.522,6.348 3.522,10.135 v 32.021 c 0,4.516 -3.661,8.177 -8.177,8.177 h -28.619 v -11.327 c 0,-5.801 2.466,-11.329 6.781,-15.207 z"
   id="path52"
   inkscape:connector-curvature="0" />
	<path
   style="fill:#e4eaf6"
   d="M 51.269,485.218 24.776,461.419 c -2.22,2.811 -3.522,6.348 -3.522,10.135 v 32.021 c 0,4.516 3.661,8.177 8.177,8.177 H 58.05 v -11.327 c 0.001,-5.801 -2.465,-11.329 -6.781,-15.207 z"
   id="path54"
   inkscape:connector-curvature="0" />
</g>
<polygon
   style="fill:#5b5d6e"
   points="119.889,474.956 135.22,474.956 137.776,511.752 117.333,511.752 "
   id="polygon58"
   transform="translate(28.747,49.99952)" />
<path
   style="fill:#515262"
   d="M 166.523,516.77952 H 146.08 v 2.362 c 0,5.47 4.434,9.904 9.904,9.904 h 0.634 c 5.47,0 9.904,-4.434 9.904,-9.904 v -2.362 z"
   id="path60"
   inkscape:connector-curvature="0" />
<g
   id="g66"
   transform="translate(28.747,49.99952)">
	<path
   style="fill:#e4eaf6"
   d="m 90.184,433.145 37.37,33.633 c 0,0 -10.466,5.283 -23.382,15.932 -2.664,2.197 -6.695,1.307 -8.123,-1.837 l -17.557,-38.626 5.554,-8.331 c 1.384,-2.074 4.285,-2.438 6.138,-0.771 z"
   id="path62"
   inkscape:connector-curvature="0" />
	<path
   style="fill:#e4eaf6"
   d="m 164.925,433.145 -37.37,33.633 c 0,0 10.466,5.283 23.382,15.932 2.664,2.197 6.695,1.307 8.123,-1.837 l 17.557,-38.626 -5.554,-8.331 c -1.384,-2.074 -4.285,-2.438 -6.138,-0.771 z"
   id="path64"
   inkscape:connector-curvature="0" />
</g>
<path
   style="fill:#785550"
   d="m 181.088,342.50752 3.833,27.087 c 17.496,3.499 20.018,30.957 20.381,38.8 0.066,1.423 0.52,2.798 1.292,3.995 l 6.676,10.355 c 0,0 -2.285,-17.121 8.177,-28.619 0,-0.002 3.592,-67.972 -40.359,-51.618 z"
   id="path68"
   inkscape:connector-curvature="0" />
<path
   style="fill:#f0c087"
   d="m 217.372,420.99452 -4.617,18.469 c -0.547,2.188 -2.514,3.723 -4.769,3.723 v 0 c -2.479,0 -4.57,-1.846 -4.878,-4.305 l -2.361,-18.89 c -0.631,-5.051 3.307,-9.513 8.398,-9.513 h 0.017 c 5.505,0 9.546,5.175 8.21,10.516 z"
   id="path70"
   inkscape:connector-curvature="0" />
<path
   style="fill:#694b4b"
   d="m 107.069,335.18252 6.048,4.131 c -27.341,20.187 -22.231,54.811 -22.231,54.811 8.177,8.177 8.177,28.619 8.177,28.619 l 8.177,-8.177 c 0,0 -3.156,-23.621 12.266,-32.707 14.31,-8.432 26.831,-4.088 39.607,-4.088 34.241,0 43.823,-12.904 42.162,-28.619 -0.859,-8.132 -13.292,-25.069 -44.973,-24.531 -12.786,0.217 -36.797,4.088 -49.233,10.561 z"
   id="path72"
   inkscape:connector-curvature="0" />
<path
   style="fill:#5a4146"
   d="m 104.685,374.19252 c 0,0 -4.344,-17.121 8.432,-34.88 -27.341,20.187 -22.231,54.811 -22.231,54.811 8.177,8.177 8.177,28.619 8.177,28.619 l 8.177,-8.177 c 0,0 -3.156,-23.621 12.266,-32.707 14.31,-8.432 26.831,-4.088 39.607,-4.088 5.569,0 10.422,-0.373 14.744,-1.012 -26.372,0.884 -41.916,-19.09 -69.172,-2.566 z"
   id="path74"
   inkscape:connector-curvature="0" />
<path
   style="fill:#e6af78"
   d="m 95.231,420.99452 4.617,18.469 c 0.547,2.188 2.514,3.723 4.769,3.723 v 0 c 2.479,0 4.57,-1.846 4.878,-4.305 l 2.361,-18.889 c 0.631,-5.051 -3.307,-9.513 -8.398,-9.513 h -0.017 c -5.505,-10e-4 -9.546,5.174 -8.21,10.515 z"
   id="path76"
   inkscape:connector-curvature="0" />
<path
   style="fill:#e4eaf6"
   d="m 205.364,553.57452 h -20.443 c -4.516,0 -8.177,3.661 -8.177,8.177 v 0 h 36.797 v 0 c -0.001,-4.515 -3.662,-8.177 -8.177,-8.177 z"
   id="path78"
   inkscape:connector-curvature="0" />
<path
   style="fill:#694b4b"
   d="m 430.911,327.51252 c -82.478,0 -73.333,100.299 -72.956,172.983 0.014,2.745 1.452,5.22 3.804,6.637 9.14,5.51 34.24,18.391 69.153,18.391 34.913,0 60.013,-12.881 69.153,-18.391 2.351,-1.417 3.789,-3.892 3.804,-6.637 0.375,-72.683 9.52,-172.983 -72.958,-172.983 z"
   id="path80"
   inkscape:connector-curvature="0" />
<path
   style="fill:#5a4146"
   d="m 425.597,327.71952 c -76.708,4.301 -68.01,101.71 -67.642,172.776 0.014,2.745 1.452,5.22 3.804,6.637 9.14,5.51 34.24,18.391 69.153,18.391 l 20.844,-145.903"
   id="path82"
   inkscape:connector-curvature="0" />
<path
   style="fill:#694b4b"
   d="m 430.911,327.51252 c -46.897,0 -50.154,56.667 -50.154,56.667 27.031,-4.56 43.641,6.839 70.998,-4.56 l -20.844,145.903 c 34.914,0 60.013,-12.881 69.153,-18.391 2.351,-1.417 3.789,-3.892 3.804,-6.637 0.376,-72.682 9.521,-172.982 -72.957,-172.982 z"
   id="path84"
   inkscape:connector-curvature="0" />
<path
   style="fill:#785550"
   d="m 503.867,500.49552 c 0.323,-62.456 7.066,-145.243 -43.359,-167.321 -0.879,4.569 -2.473,17.324 1.668,25.603 10.422,20.844 20.844,20.844 31.264,36.475 10.422,57.319 -19.913,118.156 -29.988,126.439 v 0 c 17.851,-4.245 30.647,-10.963 36.612,-14.559 2.35,-1.418 3.789,-3.892 3.803,-6.637 z"
   id="path86"
   inkscape:connector-curvature="0" />
<path
   style="fill:#e6af78"
   d="m 509.874,516.30452 -46.496,-19.373 c -3.883,-1.618 -6.413,-5.412 -6.413,-9.62 v -12.592 h -52.108 v 12.592 c 0,4.208 -2.53,8.002 -6.413,9.62 l -46.496,19.373 c -5.825,2.427 -9.62,8.119 -9.62,14.43 v 20.844 c 0,5.756 4.666,10.422 10.422,10.422 h 156.323 c 5.756,0 10.422,-4.666 10.422,-10.422 v -20.844 c -10e-4,-6.312 -3.795,-12.003 -9.621,-14.43 z"
   id="path88"
   inkscape:connector-curvature="0" />
<path
   style="fill:#eff2fa"
   d="m 509.874,516.30452 -44.956,-18.732 -34.007,14.677 -34.007,-14.677 -44.957,18.732 c -5.825,2.427 -9.62,8.119 -9.62,14.43 v 20.844 c 0,5.756 4.666,10.422 10.422,10.422 h 156.323 c 5.756,0 10.422,-4.666 10.422,-10.422 v -20.844 c 0,-6.312 -3.794,-12.003 -9.62,-14.43 z"
   id="path90"
   inkscape:connector-curvature="0" />
<path
   style="fill:#d29b6e"
   d="m 456.964,474.71752 h -52.108 v 12.592 c 0,4.208 -2.53,8.002 -6.413,9.62 l -7.263,3.026 c 55.574,14.17 65.784,-25.238 65.784,-25.238 z"
   id="path92"
   inkscape:connector-curvature="0" />
<g
   id="g104"
   transform="translate(28.747,49.99952)">
	<path
   style="fill:#e4eaf6"
   d="m 338.978,486.462 -20.916,-16.637 c -2.803,2.866 -4.482,6.741 -4.482,10.909 v 20.844 c 0,5.756 4.666,10.422 10.422,10.422 h 20.844 v -13.33 c -10e-4,-4.75 -2.16,-9.241 -5.868,-12.208 z"
   id="path94"
   inkscape:connector-curvature="0" />
	<path
   style="fill:#e4eaf6"
   d="m 490.747,501.577 v -20.844 c 0,-4.136 -1.652,-7.985 -4.415,-10.844 l -20.983,16.572 c -3.708,2.966 -5.866,7.458 -5.866,12.207 v 13.33 h 20.844 c 5.754,0.001 10.42,-4.665 10.42,-10.421 z"
   id="path96"
   inkscape:connector-curvature="0" />
	<path
   style="fill:#e4eaf6"
   d="m 402.945,501.577 h -1.563 c -2.446,0 -4.429,-1.983 -4.429,-4.429 v -34.886 h 10.422 v 34.886 c 0,2.446 -1.984,4.429 -4.43,4.429 z"
   id="path98"
   inkscape:connector-curvature="0" />
	<path
   style="fill:#e4eaf6"
   d="M 402.164,462.25 372.34,439.883 c -1.915,-1.436 -4.642,-0.969 -5.969,1.022 l -5.893,8.84 18.285,25.598 c 1.39,1.945 4.129,2.326 5.996,0.833 z"
   id="path100"
   inkscape:connector-curvature="0" />
	<path
   style="fill:#e4eaf6"
   d="m 402.164,462.25 29.824,-22.367 c 1.915,-1.436 4.642,-0.969 5.969,1.022 l 5.893,8.84 -18.285,25.598 c -1.39,1.945 -4.129,2.326 -5.996,0.833 z"
   id="path102"
   inkscape:connector-curvature="0" />
</g>
<path
   style="fill:#f0c087"
   d="m 456.964,374.40952 c -26.054,26.054 -77.185,5.211 -77.185,46.897 l 3.236,30.706 c 0.625,6.869 4.606,12.984 10.634,16.334 l 29.669,16.482 c 4.721,2.623 10.462,2.623 15.183,0 l 29.669,-16.482 c 6.029,-3.35 10.011,-9.465 10.634,-16.334 l 3.735,-36.469 c 0.266,-2.592 0.322,-5.2 0.235,-7.801 -1.948,-13.264 -20.599,-22.911 -25.81,-33.333 z"
   id="path106"
   inkscape:connector-curvature="0" />
<path
   style="fill:#e6af78"
   d="m 379.779,421.30652 3.236,30.706 c 0.625,6.869 4.606,12.984 10.634,16.334 l 29.669,16.482 c 3.276,1.82 7.034,2.291 10.61,1.586 v 0 c 0,0 -14.958,-4.533 -23.861,-28.632 -2.727,-7.382 -6.513,-46.463 -3.257,-51.24 6.437,-9.441 42.337,-10.422 52.945,-27.936 -0.524,-0.65 -1.008,-1.301 -1.449,-1.953 -0.035,-0.052 -0.079,-0.105 -0.114,-0.158 -0.461,-0.693 -0.878,-1.387 -1.228,-2.085 -26.053,26.053 -77.185,5.21 -77.185,46.896 z"
   id="path108"
   inkscape:connector-curvature="0" />
<path
   style="fill:#e4eaf6"
   d="m 468.95,551.57652 h -13.548 c -4.892,0 -8.858,3.966 -8.858,8.858 v 1.563 h 31.264 v -1.563 c 0,-4.891 -3.966,-8.858 -8.858,-8.858 z"
   id="path110"
   inkscape:connector-curvature="0" />
<g
   id="g112"
   transform="translate(28.747,49.99952)">
</g>
<g
   id="g114"
   transform="translate(28.747,49.99952)">
</g>
<g
   id="g116"
   transform="translate(28.747,49.99952)">
</g>
<g
   id="g118"
   transform="translate(28.747,49.99952)">
</g>
<g
   id="g120"
   transform="translate(28.747,49.99952)">
</g>
<g
   id="g122"
   transform="translate(28.747,49.99952)">
</g>
<g
   id="g124"
   transform="translate(28.747,49.99952)">
</g>
<g
   id="g126"
   transform="translate(28.747,49.99952)">
</g>
<g
   id="g128"
   transform="translate(28.747,49.99952)">
</g>
<g
   id="g130"
   transform="translate(28.747,49.99952)">
</g>
<g
   id="g132"
   transform="translate(28.747,49.99952)">
</g>
<g
   id="g134"
   transform="translate(28.747,49.99952)">
</g>
<g
   id="g136"
   transform="translate(28.747,49.99952)">
</g>
<g
   id="g138"
   transform="translate(28.747,49.99952)">
</g>
<g
   id="g140"
   transform="translate(28.747,49.99952)">
</g>
</svg>