<?xml version="1.0" encoding="UTF-8" standalone="no"?>
<!-- Generator: Adobe Illustrator 19.0.0, SVG Export Plug-In . SVG Version: 6.00 Build 0)  -->

<svg
   xmlns:dc="http://purl.org/dc/elements/1.1/"
   xmlns:cc="http://creativecommons.org/ns#"
   xmlns:rdf="http://www.w3.org/1999/02/22-rdf-syntax-ns#"
   xmlns:svg="http://www.w3.org/2000/svg"
   xmlns="http://www.w3.org/2000/svg"
   xmlns:sodipodi="http://sodipodi.sourceforge.net/DTD/sodipodi-0.dtd"
   xmlns:inkscape="http://www.inkscape.org/namespaces/inkscape"
   version="1.1"
   id="Layer_1"
   x="0px"
   y="0px"
   viewBox="0 0 508 508"
   style="enable-background:new 0 0 508 508;"
   xml:space="preserve"
   sodipodi:docname="236821.svg"
   inkscape:version="0.92.3 (2405546, 2018-03-11)"><metadata
   id="metadata55"><rdf:RDF><cc:Work
       rdf:about=""><dc:format>image/svg+xml</dc:format><dc:type
         rdf:resource="http://purl.org/dc/dcmitype/StillImage" /></cc:Work></rdf:RDF></metadata><defs
   id="defs53" /><sodipodi:namedview
   pagecolor="#ffffff"
   bordercolor="#666666"
   borderopacity="1"
   objecttolerance="10"
   gridtolerance="10"
   guidetolerance="10"
   inkscape:pageopacity="0"
   inkscape:pageshadow="2"
   inkscape:window-width="1366"
   inkscape:window-height="704"
   id="namedview51"
   showgrid="false"
   inkscape:zoom="0.46456693"
   inkscape:cx="254"
   inkscape:cy="254"
   inkscape:window-x="0"
   inkscape:window-y="27"
   inkscape:window-maximized="1"
   inkscape:current-layer="Layer_1" />
<circle
   style="fill:#f6ffd5"
   cx="254"
   cy="254"
   r="254"
   id="circle2" />
<path
   style="fill:#e9c6af"
   d="M329.6,112.8c0,0,3.2,31.2-10.4,44.4c-13.6,13.6-12,26-12,26c-0.4,2.8-2.4,4.8-3.6,5.6  c-3.6,2.4-9.2,1.6-10.4-2c-2.8-7.6-1.6-17.2,1.2-26.8L258,200.8c-3.2,3.6-8.4,4-12,0.8c-4-3.2-4.4-8.8-1.2-12.8l31.2-36.4  c0.4-0.4,0.4-0.8,0-1.2s-0.8-0.4-1.2,0l-34.8,40c-2.8,3.2-7.6,4.4-11.2,2c-0.4,0-0.4-0.4-0.8-0.4l0,0c-3.6-3.2-4-8.8-0.8-12.4  l33.2-38c0.4-0.4,0.4-0.8,0-1.2s-0.8-0.4-1.2,0l-25.6,29.2c-3.2,4-9.2,4-12.8,0c-2.8-3.2-2.4-8,0.4-11.2l28-32  c0.4-0.4,0.4-0.8,0-1.2c-0.4-0.4-0.8-0.4-1.2,0l-18,20c-2.8,3.2-8,3.6-11.2,0.8c-3.6-2.8-4-8.4-0.8-12l23.2-25.6  c10-10.8,21.2-20.8,33.2-29.2l10.4-7.2c0,0,7.2-4.8,15.6-11.6L336,97.6C332.4,103.6,329.6,109.2,329.6,112.8z"
   id="path4" />
<path
   style="fill:#FFD05B;"
   d="M330.8,12l-39.6,40.4l51.6,52.4L400,46.4C379.2,31.6,356,20,330.8,12z"
   id="path6" />
<path
   style="fill:#deaa87"
   d="M290.4,372.8l-23.2,25.6c-10,11.2-21.2,20.8-33.2,29.2l-10.4,7.2c0,0-7.2,4.8-15.6,11.6L172.4,410  c4-6,6.8-11.6,6.4-15.2c0,0-3.2-31.2,10.4-44.4c13.6-13.6,12-26,12-26c0.4-2.8,2.4-4.8,3.6-5.6c3.6-2.4,9.2-1.6,10.4,2  c2.8,7.6,1.6,17.2-1.2,26.8l36-40.4c3.2-3.6,8.4-4,12-0.8c4,3.2,4.4,8.8,1.2,12.8L232,355.6c-0.4,0.4-0.4,0.8,0,1.2  c0.4,0.4,0.8,0.4,1.2,0l34.8-40c2.8-3.2,7.6-4.4,11.2-2c0.4,0,0.4,0.4,0.8,0.4l0,0c3.6,3.2,4,8.8,0.8,12.4l-33.2,38  c-0.4,0.4-0.4,0.8,0,1.2c0.4,0.4,0.8,0.4,1.2,0l25.6-29.2c3.2-4,9.2-4,12.8,0c2.8,3.2,2.4,8-0.4,11.2l-28,32c-0.4,0.4-0.4,0.8,0,1.2  c0.4,0.4,0.8,0.4,1.2,0l17.6-20c2.8-3.2,8-3.6,11.2-0.8C293.2,364,293.6,369.2,290.4,372.8z"
   id="path8" />
<path
   style="fill:#324A5E;"
   d="M107.6,461.6c20.8,14.8,44.4,26.4,69.2,34.4l39.6-40.4l-51.6-52.4L107.6,461.6z"
   id="path10" />
<path
   style="fill:#552200"
   d="M446.8,300.4L410.4,336c-6-4-11.6-6.8-15.2-6.4c0,0-31.2,3.2-44.4-10.4c-13.6-13.6-26-12-26-12  c-2.8-0.4-4.8-2.4-5.6-3.6c-2.4-3.6-1.6-9.2,2-10.4c7.6-2.8,17.2-1.6,26.8,1.2L307.2,258c-3.6-3.2-4-8.4-0.8-12  c3.2-4,8.8-4.4,12.8-1.2l36.4,31.2c0.4,0.4,0.8,0.4,1.2,0c0.4-0.4,0.4-0.8,0-1.2l-40-34.8c-3.2-2.8-4.4-7.6-2-11.2  c0-0.4,0.4-0.4,0.4-0.8l0,0c3.2-3.6,8.8-4,12.4-0.8l38,33.2c0.4,0.4,0.8,0.4,1.2,0c0.4-0.4,0.4-0.8,0-1.2l-29.2-25.6  c-4-3.2-4-9.2,0-12.8c3.2-2.8,8-2.4,11.2,0.4l32,28c0.4,0.4,0.8,0.4,1.2,0c0.4-0.4,0.4-0.8,0-1.2l-20-18c-3.2-2.8-3.6-8-0.8-11.2  c2.8-3.6,8.4-4,12-0.8l25.6,23.2c11.2,10,20.8,21.2,29.2,33.2l7.2,10.4C435.2,284.8,440,291.6,446.8,300.4z"
   id="path12" />
<path
   style="fill:#54C0EB;"
   d="M461.6,400.4c14.8-20.8,26.4-44.4,34.4-69.2l-40.4-39.6l-52.4,51.6L461.6,400.4z"
   id="path14" />
<path
   style="fill:#aa4400"
   d="M202,262.4c-3.2,4-8.8,4.4-12.8,1.2l-36.4-31.2c-0.4-0.4-0.8-0.4-1.2,0s-0.4,0.8,0,1.2l40,34.8  c3.2,2.8,4.4,7.6,2,11.2c0,0.4-0.4,0.4-0.4,0.8l0,0c-3.2,3.6-8.8,4-12.4,0.8l-38-33.2c-0.4-0.4-0.8-0.4-1.2,0s-0.4,0.8,0,1.2  l29.2,25.6c4,3.2,4,9.2,0,12.8c-3.2,2.8-8,2.4-11.2-0.4l-32-28c-0.4-0.4-0.8-0.4-1.2,0s-0.4,0.8,0,1.2l20,17.6  c3.2,2.8,3.6,8,0.8,11.2c-2.8,3.6-8.4,4-11.6,0.8l-26-23.2c-10.8-10-20.8-21.2-29.2-33.2l-7.2-10.4c0,0-4.8-7.2-11.6-15.6L98,172  c6,4,11.6,6.8,15.2,6.4c0,0,31.2-3.2,44.4,10.4c13.6,13.6,26,12,26,12c2.8,0.4,4.8,2.4,5.6,3.6c2.4,3.6,1.6,9.2-2,10.4  c-7.6,2.8-17.2,1.6-26.8-1.2l40.4,36.4C204.4,253.2,204.8,258.4,202,262.4z"
   id="path16" />
<path
   style="fill:#4CDBC4;"
   d="M12,177.2l40.4,39.6l52.4-51.6l-58.4-57.6C31.6,128.8,20,152,12,177.2z"
   id="path18" />
<g
   id="g20">
</g>
<g
   id="g22">
</g>
<g
   id="g24">
</g>
<g
   id="g26">
</g>
<g
   id="g28">
</g>
<g
   id="g30">
</g>
<g
   id="g32">
</g>
<g
   id="g34">
</g>
<g
   id="g36">
</g>
<g
   id="g38">
</g>
<g
   id="g40">
</g>
<g
   id="g42">
</g>
<g
   id="g44">
</g>
<g
   id="g46">
</g>
<g
   id="g48">
</g>
</svg>